<svg xmlns="http://www.w3.org/2000/svg" viewBox="0 0 64 64" fill="none">
  <path d="M32 4L8 16v20c0 12.8 10.24 24.32 24 28 13.76-3.68 24-15.2 24-28V16L32 4z" fill="#FFD700" stroke="#1a1a1a" stroke-width="2"/>
  <path d="M32 8L12 18v18c0 10.8 8.64 20.52 20 23.6 11.36-3.08 20-12.8 20-23.6V18L32 8z" fill="#1a1a1a"/>
  <path d="M32 12L16 20v16c0 8.8 7.04 16.72 16 19.2 8.96-2.48 16-10.4 16-19.2V20L32 12z" fill="#FFD700"/>
  <rect x="22" y="22" width="6" height="6" fill="#1a1a1a"/>
  <rect x="36" y="22" width="6" height="6" fill="#1a1a1a"/>
  <rect x="29" y="22" width="6" height="6" fill="#1a1a1a"/>
  <rect x="22" y="29" width="6" height="6" fill="#1a1a1a"/>
  <rect x="36" y="29" width="6" height="6" fill="#1a1a1a"/>
  <rect x="29" y="36" width="6" height="6" fill="#1a1a1a"/>
  <rect x="22" y="36" width="6" height="6" fill="#1a1a1a"/>
  <rect x="36" y="36" width="6" height="6" fill="#1a1a1a"/>
</svg>
